<?xml version="1.0" standalone="no"?>
<!DOCTYPE svg PUBLIC "-//W3C//DTD SVG 20010904//EN"
 "http://www.w3.org/TR/2001/REC-SVG-20010904/DTD/svg10.dtd">
<svg version="1.0" xmlns="http://www.w3.org/2000/svg"
 width="1024.000000pt" height="1000.000000pt" viewBox="0 0 1024.000000 1000.000000"
 preserveAspectRatio="xMidYMid meet">
<metadata>
Created by potrace 1.16, written by Peter Selinger 2001-2019
</metadata>
<g transform="translate(0.000000,1000.000000) scale(0.100000,-0.100000)"
fill="#000000" stroke="none">
<path d="M4308 9970 c162 -75 353 -233 473 -394 68 -89 89 -124 469 -786 43
-74 120 -209 173 -300 52 -91 206 -358 342 -595 136 -236 258 -449 271 -471
l24 -42 -138 -77 c-75 -43 -240 -137 -367 -209 l-230 -131 280 -7 c422 -10
1640 -28 1890 -28 l220 0 154 278 c158 283 283 506 501 897 67 121 178 319
245 440 67 121 152 273 189 338 37 66 65 121 62 124 -5 6 -72 -32 -465 -266
-140 -83 -255 -150 -256 -149 -1 2 -143 244 -315 538 -172 294 -333 566 -357
603 -59 92 -132 161 -218 203 -135 67 -46 63 -1600 63 l-1410 0 63 -29z"/>
<path d="M3457 9895 c-242 -40 -437 -137 -599 -300 -96 -96 -145 -167 -293
-425 -65 -113 -180 -311 -255 -440 -75 -129 -196 -338 -270 -465 -73 -126
-184 -319 -247 -427 -63 -108 -113 -202 -111 -208 2 -6 91 -62 198 -124 107
-61 434 -251 725 -420 951 -554 1145 -666 1156 -669 6 -1 27 27 48 63 59 102
509 879 666 1150 78 135 202 349 275 475 73 127 173 298 221 382 49 84 89 155
89 158 0 12 -410 692 -461 765 -136 193 -345 356 -553 429 -174 62 -415 85
-589 56z"/>
<path d="M8975 6851 c-66 -38 -536 -306 -1045 -596 -509 -290 -926 -529 -928
-530 -2 -2 37 -72 86 -157 49 -84 148 -254 219 -378 371 -642 712 -1231 838
-1450 l142 -245 419 -3 c495 -4 584 5 792 74 345 116 646 478 727 873 24 118
17 363 -13 472 -45 162 -52 175 -472 899 -97 168 -280 483 -405 700 -126 217
-231 398 -234 402 -4 4 -61 -23 -126 -61z"/>
<path d="M2050 6409 c-179 -4 -604 -12 -945 -18 -788 -14 -1105 -22 -1105 -30
0 -3 49 -33 108 -67 651 -368 612 -344 600 -368 -6 -11 -158 -277 -337 -591
-366 -641 -371 -653 -371 -824 0 -111 16 -180 63 -271 18 -36 156 -276 306
-535 453 -777 677 -1163 877 -1507 104 -180 191 -327 194 -328 3 0 3 57 1 127
-3 137 7 216 45 355 55 197 96 289 258 567 57 97 170 293 253 436 370 640 598
1033 692 1198 57 97 108 177 113 177 6 0 172 -93 370 -206 198 -113 362 -203
365 -201 3 3 -124 239 -282 524 -158 285 -416 750 -573 1033 -157 283 -290
520 -296 525 -7 7 -120 8 -336 4z"/>
<path d="M6679 4055 c-14 -22 -136 -224 -271 -450 -135 -225 -347 -579 -470
-785 -124 -206 -279 -466 -346 -577 l-120 -202 520 -868 c285 -477 561 -937
611 -1020 50 -84 95 -153 99 -153 4 0 8 187 8 415 l0 415 649 0 c739 0 767 2
907 70 87 42 176 116 224 184 15 23 71 116 123 206 52 91 173 302 269 470 96
168 227 395 290 505 63 110 212 369 330 575 119 206 250 435 292 508 42 73 76
137 76 143 0 5 -26 -8 -57 -29 -120 -81 -284 -154 -412 -183 -164 -38 -194
-39 -1458 -39 l-1233 0 -2 428 -3 427 -26 -40z"/>
<path d="M2209 3238 c-7 -13 -92 -165 -189 -338 -97 -173 -188 -340 -202 -371
-37 -79 -94 -267 -114 -374 -24 -134 -15 -348 20 -475 102 -365 386 -666 740
-785 183 -61 133 -59 1294 -63 l1062 -3 0 1216 0 1215 -1300 0 -1299 0 -12
-22z"/>
</g>
</svg>
